<svg id="Capa_1" enable-background="new 0 0 512 512" height="512" viewBox="0 0 512 512" width="512" xmlns="http://www.w3.org/2000/svg"><g><path d="m456.732 111.609h-401.464c-9.957 0-18.029-8.072-18.029-18.029v-75.55c0-9.958 8.072-18.03 18.029-18.03h401.464c9.957 0 18.029 8.072 18.029 18.029v75.55c0 9.958-8.072 18.03-18.029 18.03z" fill="#365e7d"/><path d="m456.732 0h-23.638c9.957 0 18.029 8.072 18.029 18.029v75.55c0 9.957-8.072 18.029-18.029 18.029h23.638c9.957 0 18.029-8.072 18.029-18.029v-75.55c0-9.957-8.072-18.029-18.029-18.029z" fill="#2b4d66"/><path d="m376.268 188.455 77.666 75.477c20.279 19.708 23.436 51.149 7.48 74.495l-36.709 53.709c-4.404 6.444-6.761 14.068-6.761 21.874v40.909h-58.15v-175.208-78.162z" fill="#f1d0a5"/><g><path d="m412.843 314.613c-2.028 0-4.052-.793-5.569-2.37l-67.546-70.223c-2.958-3.075-2.863-7.967.212-10.925 3.076-2.959 7.967-2.863 10.925.212l67.546 70.223c2.958 3.075 2.863 7.967-.212 10.925-1.499 1.442-3.429 2.158-5.356 2.158z" fill="#f1b986"/></g><path d="m453.934 263.932-77.666-75.477-13.695 10.885 66.466 64.592c20.279 19.708 23.436 51.149 7.48 74.495l-36.709 53.709c-4.404 6.444-6.761 14.068-6.761 21.874v40.909h24.896v-40.909c0-7.806 2.357-15.429 6.761-21.874l36.709-53.709c15.955-23.346 12.798-54.787-7.481-74.495z" fill="#f1b986"/><path d="m421.094 64.047h-330.188c-5.181 0-9.381-4.2-9.381-9.381v-12.491c0-5.181 4.2-9.381 9.381-9.381h330.188c5.181 0 9.381 4.2 9.381 9.381v12.491c0 5.181-4.2 9.381-9.381 9.381z" fill="#ecf4ff"/><path d="m421.094 32.794h-25.376c5.181 0 9.381 4.2 9.381 9.381v12.491c0 5.181-4.2 9.381-9.381 9.381h25.376c5.181 0 9.381-4.2 9.381-9.381v-12.491c0-5.181-4.2-9.381-9.381-9.381z" fill="#ddeafb"/><path d="m142.359 64.047v318.06c0 5.455 4.423 9.878 9.878 9.878h214.153c5.455 0 9.878-4.423 9.878-9.878v-318.06z" fill="#78c2a4"/><path d="m356.704 64.047v318.06c0 5.455-4.423 9.878-9.878 9.878h19.564c5.455 0 9.878-4.423 9.878-9.878v-318.06z" fill="#66b394"/><g><g><path d="m340.799 366.067h-1.935c-4.268 0-7.726-3.459-7.726-7.726s3.459-7.726 7.726-7.726h1.935c4.268 0 7.726 3.459 7.726 7.726s-3.458 7.726-7.726 7.726z" fill="#e0f8c5"/></g><g><path d="m179.762 366.067h-1.936c-4.268 0-7.726-3.459-7.726-7.726s3.459-7.726 7.726-7.726h1.936c4.268 0 7.726 3.459 7.726 7.726s-3.458 7.726-7.726 7.726z" fill="#e0f8c5"/></g></g><path d="m171.369 64.047v254.46c0 .85.673 1.546 1.523 1.576 22.492.784 40.585 18.876 41.369 41.369.03.849.726 1.523 1.576 1.523h86.953c.85 0 1.546-.673 1.576-1.523.802-22.998 19.698-41.395 42.892-41.395v-256.01z" fill="#e0f8c5"/><path d="m317.838 64.047c3.741 5.581 5.864 12.23 5.864 19.206v210.404c0 13.068-7.409 25.05-19.107 30.876-14.114 7.029-23.811 21.603-23.811 38.441h22.006c.85 0 1.546-.673 1.576-1.523.802-22.998 19.698-41.395 42.892-41.395v-256.009z" fill="#ccf49f"/><path d="m338.737 454.919-.927-44.69c-.148-6.36-1.291-12.658-3.389-18.665-5.892-16.872-2.555-35.595 8.802-49.393 2.391-2.905 2.765-6.975.943-10.266l-36.22-70.015c-3.718-7.188-2.305-15.961 3.484-21.617 7.309-7.142 19.038-6.961 26.123.405l67.546 70.222-17.513 70.165-9.115 73.854z" fill="#f1d0a5"/><g><g><path d="m241.089 218.575c-1.615.001-3.259-.136-4.924-.415-12.675-2.131-25.564-13.181-25.678-30.178-.071-10.628.906-16.61 7.147-26.149 2.337-3.571 7.126-4.571 10.695-2.236 3.571 2.336 4.572 7.125 2.236 10.695-4.263 6.516-4.682 9.151-4.626 17.588.058 8.867 6.67 14.013 12.788 15.041 3.054.518 10.525.719 13.777-8.481 4.549-12.868 8.116-20.298 12.309-25.644 4.976-6.343 13.601-9.241 22.518-7.559 9.71 1.829 17.437 8.59 20.163 17.641 5.178 17.188-3.116 34.037-3.471 34.746-1.914 3.815-6.557 5.353-10.371 3.442-3.805-1.909-5.347-6.535-3.455-10.344.105-.216 5.864-12.223 2.501-23.386-1.263-4.192-5.078-6.32-8.229-6.913-3.171-.599-6.117.152-7.497 1.911-3.823 4.874-7.149 13.481-9.898 21.258-4.169 11.791-14.269 18.983-25.985 18.983z" fill="#365e7d"/></g><g><path d="m312.501 195.657h-106.376c-4.268 0-7.726-3.459-7.726-7.726s3.459-7.726 7.726-7.726h106.375c4.268 0 7.726 3.459 7.726 7.726s-3.458 7.726-7.725 7.726z" fill="#365e7d"/></g><g><path d="m259.312 297.483c-4.268 0-7.726-3.459-7.726-7.726v-20.092c0-4.268 3.459-7.726 7.726-7.726s7.726 3.459 7.726 7.726v20.092c.001 4.267-3.458 7.726-7.726 7.726z" fill="#365e7d"/></g><g><path d="m259.312 114.972c-4.268 0-7.726-3.459-7.726-7.726v-20.092c0-4.268 3.459-7.726 7.726-7.726s7.726 3.459 7.726 7.726v20.092c.001 4.267-3.458 7.726-7.726 7.726z" fill="#365e7d"/></g></g><path d="m435.766 512h-110.755c-5.85 0-10.592-4.742-10.592-10.592v-35.897c0-5.85 4.742-10.592 10.592-10.592h110.755c5.85 0 10.592 4.742 10.592 10.592v35.897c0 5.85-4.742 10.592-10.592 10.592z" fill="#f6e266"/><path d="m437.035 454.919h-20.577c5.149 0 9.322 5.388 9.322 12.035v33.011c0 6.647-4.174 12.035-9.322 12.035h20.577c5.149 0 9.322-5.388 9.322-12.035v-33.011c.001-6.647-4.173-12.035-9.322-12.035z" fill="#ecbe6b"/></g></svg>